<svg width="168" height="205" viewBox="0 0 168 205" fill="none" xmlns="http://www.w3.org/2000/svg">
<path d="M49.7685 96.7143C50.4099 97.6324 51.172 98.3611 52.0111 98.8586C52.8503 99.356 53.7501 99.6126 54.659 99.6135C55.568 99.6145 56.4683 99.3598 57.3085 98.8641C58.1486 98.3683 58.9122 97.6413 59.5555 96.7244L77.1152 71.7172L77.0146 168.75C77.0119 171.367 77.738 173.878 79.0332 175.73C80.3284 177.582 82.0866 178.623 83.9211 178.625C85.7555 178.627 87.5158 177.589 88.8149 175.74C90.1139 173.891 90.8452 171.381 90.848 168.764L90.9486 71.7316L108.463 96.7751C109.759 98.6268 111.518 99.6676 113.353 99.6686C115.188 99.6696 116.948 98.6307 118.247 96.7803C119.546 94.93 120.277 92.4199 120.279 89.8022C120.281 87.1846 119.554 84.6737 118.258 82.822L88.9539 40.9313C87.6588 39.08 85.9009 38.0389 84.0668 38.037C82.2328 38.0351 80.4727 39.0725 79.1738 40.9211L49.7899 82.751C49.1458 83.6668 48.6345 84.7546 48.2852 85.9522C47.9359 87.1498 47.7554 88.4337 47.7541 89.7305C47.7527 91.0273 47.9305 92.3116 48.2774 93.51C48.6242 94.7083 49.1333 95.7971 49.7754 96.7143L49.7685 96.7143Z" fill="black"/>
</svg>
