<svg width="52" height="52" viewBox="0 0 52 52" fill="none" xmlns="http://www.w3.org/2000/svg">
<g id="arcticons:whatsapp">
<path id="Vector" d="M26 2.70801C21.9541 2.71235 17.9789 3.76959 14.4653 5.77576C10.9517 7.78193 8.02076 10.668 5.96054 14.1501C3.90032 17.6323 2.78179 21.5907 2.71493 25.6361C2.64807 29.6815 3.63518 33.6747 5.57921 37.223L2.70837 49.2913L14.7767 46.4205C17.8894 48.128 21.3512 49.1014 24.8977 49.2662C28.4441 49.431 31.9813 48.7829 35.239 47.3715C38.4966 45.96 41.3885 43.8225 43.6936 41.1223C45.9987 38.4221 47.656 35.2307 48.5389 31.792C49.4218 28.3533 49.5069 24.7582 48.7878 21.2815C48.0686 17.8048 46.5642 14.5386 44.3894 11.7323C42.2147 8.92608 39.4273 6.65412 36.2401 5.09005C33.0529 3.52599 29.5503 2.71122 26 2.70801ZM14.3542 13.2922H20.7025C20.9899 13.2922 21.2654 13.4063 21.4686 13.6095C21.6717 13.8126 21.7859 14.0882 21.7859 14.3755C21.7503 15.8202 21.9931 17.2583 22.5009 18.6113C22.7196 19.0643 22.7676 19.5808 22.6363 20.0663C22.505 20.5518 22.2031 20.9737 21.7859 21.2547L19.565 23.4213C20.5497 25.3443 21.8373 27.0964 23.3784 28.6105C24.8802 30.1767 26.6252 31.49 28.5459 32.4997L30.7125 30.2788C31.7959 29.1955 32.2942 29.1955 33.3559 29.5638C34.7089 30.0716 36.147 30.3144 37.5917 30.2788C37.8748 30.292 38.1427 30.4104 38.3431 30.6108C38.5435 30.8112 38.6619 31.0791 38.675 31.3622V37.7105C38.6619 37.9936 38.5435 38.2615 38.3431 38.4619C38.1427 38.6623 37.8748 38.7807 37.5917 38.7938C31.2191 38.5162 25.1785 35.8744 20.6484 31.3838C16.1508 26.8585 13.5077 20.815 13.2384 14.4405C13.241 14.1423 13.3584 13.8566 13.5662 13.6427C13.774 13.4289 14.0562 13.3033 14.3542 13.2922Z" stroke="black" stroke-linecap="round" stroke-linejoin="round"/>
</g>
</svg>
