<svg width="52" height="52" fill="none" xmlns="http://www.w3.org/2000/svg"><path d="M26 2.708A23.313 23.313 0 005.58 37.223L2.707 49.291l12.069-2.87A23.292 23.292 0 1026 2.707zM14.354 13.292h6.349a1.083 1.083 0 011.083 1.084 11.265 11.265 0 00.715 4.235 2.09 2.09 0 01-.715 2.644l-2.221 2.166a20.149 20.149 0 003.813 5.19 20.148 20.148 0 005.168 3.889l2.166-2.221c1.084-1.084 1.582-1.084 2.644-.715 1.353.508 2.791.75 4.236.715a1.138 1.138 0 011.083 1.083v6.349a1.137 1.137 0 01-1.083 1.083 25.653 25.653 0 01-16.944-7.41 25.566 25.566 0 01-7.41-16.944 1.16 1.16 0 011.116-1.148z" stroke="#000" stroke-linecap="round" stroke-linejoin="round"/></svg>