<svg width="26" height="27" fill="none" xmlns="http://www.w3.org/2000/svg"><g clip-path="url(#clip0_106_252)"><path d="M13 2.327A11.657 11.657 0 002.79 19.585l-1.436 6.034 6.034-1.436A11.647 11.647 0 1013 2.327zM7.177 7.62h3.174a.542.542 0 01.542.542 5.633 5.633 0 00.357 2.118 1.045 1.045 0 01-.357 1.322l-1.11 1.083a10.075 10.075 0 001.906 2.594 10.09 10.09 0 002.584 1.945l1.083-1.11c.542-.542.791-.542 1.322-.358a5.635 5.635 0 002.118.358.569.569 0 01.541.541v3.174a.569.569 0 01-.541.542 12.827 12.827 0 01-8.472-3.705A12.783 12.783 0 016.62 8.193a.58.58 0 01.558-.574z" stroke="#000" stroke-linecap="round" stroke-linejoin="round"/></g><defs><clipPath id="clip0_106_252"><path fill="#fff" transform="translate(0 .973)" d="M0 0h26v26H0z"/></clipPath></defs></svg>