<svg width="168" height="205" fill="none" xmlns="http://www.w3.org/2000/svg"><path d="M49.769 96.714c.64.918 1.403 1.647 2.242 2.145.84.497 1.74.754 2.648.755.909 0 1.81-.254 2.65-.75.84-.496 1.603-1.223 2.247-2.14l17.56-25.007-.101 97.033c-.003 2.617.723 5.128 2.018 6.98 1.295 1.852 3.054 2.893 4.888 2.895 1.834.002 3.595-1.036 4.894-2.885 1.299-1.849 2.03-4.359 2.033-6.976l.1-97.032 17.515 25.043c1.296 1.852 3.055 2.893 4.89 2.894 1.835 0 3.595-1.038 4.894-2.889 1.299-1.85 2.03-4.36 2.032-6.978.002-2.617-.725-5.128-2.021-6.98l-29.304-41.89c-1.295-1.852-3.053-2.893-4.887-2.895-1.834-.002-3.594 1.035-4.893 2.884L49.79 82.751c-.644.916-1.155 2.004-1.505 3.201a13.605 13.605 0 00-.53 3.779 13.602 13.602 0 00.522 3.779c.347 1.198.856 2.287 1.498 3.204h-.006z" fill="#000"/></svg>