<svg xmlns="http://www.w3.org/2000/svg" viewBox="0 0 256 256" width="50" height="50"><path d="M128 10.24C63.025 10.24 10.24 63.025 10.24 128c0 20.885 5.728 40.376 15.28 57.39l-15.09 53.87a5.12 5.12 0 006.16 6.35l56.17-13.92c16.505 8.811 35.234 14.07 55.24 14.07 64.975 0 117.76-52.785 117.76-117.76 0-64.975-52.785-117.76-117.76-117.76zm0 10.24c59.44 0 107.52 48.08 107.52 107.52S187.44 235.52 128 235.52c-19.057 0-36.904-4.968-52.42-13.65a5.12 5.12 0 00-3.73-.5l-49.19 12.19 13.19-47.06a5.12 5.12 0 00-.51-3.99c-9.43-15.99-14.86-34.593-14.86-54.51C20.48 68.56 68.56 20.48 128 20.48zM85.21 66.56c-3.282 0-7.97 1.221-11.82 5.37-2.313 2.492-11.95 11.882-11.95 28.39 0 17.211 11.937 32.062 13.38 33.97h.01v.01c-.137-.18 1.832 2.671 4.46 6.09a162.152 162.152 0 0010.92 12.77c9.234 9.722 22.216 20.958 38.33 27.83 7.42 3.16 13.275 5.068 17.71 6.46 8.22 2.581 15.706 2.189 21.33 1.36 4.21-.62 8.84-2.641 13.42-5.54s9.07-6.503 11.05-11.98c1.418-3.926 2.14-7.554 2.4-10.54.13-1.493.147-2.81.05-4.03-.097-1.22.007-2.154-1.13-4.02-2.384-3.914-5.083-4.016-7.9-5.41a938.68 938.68 0 00-10.49-5.08c-4.464-2.127-8.33-4.011-10.71-4.86-1.504-.541-3.34-1.32-5.99-1.02-2.65.3-5.266 2.212-6.79 4.47-1.444 2.14-7.258 9.003-9.03 11.02-.024-.014.13.057-.57-.29-2.192-1.085-4.873-2.007-8.84-4.1-3.967-2.093-8.93-5.183-14.36-9.97v-.01c-8.082-7.115-13.744-16.05-15.53-19.05.12-.143-.014.03.24-.22l.01-.01c1.825-1.798 3.443-3.945 4.81-5.52 1.938-2.233 2.793-4.201 3.72-6.04 1.847-3.665.818-7.698-.25-9.82v-.01c.074.147-.578-1.291-1.28-2.95-.704-1.663-1.602-3.82-2.56-6.12-1.917-4.6-4.057-9.758-5.33-12.78v-.01c-1.5-3.559-3.528-6.123-6.18-7.36-2.652-1.237-4.995-.885-5.09-.89h-.01c-1.893-.087-3.97-.11-6.03-.11zm0 10.24c1.974 0 3.92.024 5.55.1 1.677.084 1.572.09 1.25-.06-.328-.153.117-.202 1.07 2.06 1.246 2.959 3.397 8.136 5.32 12.75.961 2.307 1.861 4.472 2.58 6.17.719 1.698 1.108 2.646 1.56 3.55v.01l.01.01c.443.874.404.314.25.62-1.08 2.144-1.227 2.67-2.32 3.93-1.664 1.917-3.362 4.055-4.26 4.94-.786.772-2.204 1.975-3.09 4.33-.887 2.358-.473 5.594.95 8.01 1.895 3.216 8.138 13.378 17.84 21.92 6.11 5.386 11.803 8.951 16.35 11.35 4.547 2.399 8.251 3.8 9.08 4.21 1.968.974 4.119 1.73 6.62 1.43 2.501-.3 4.657-1.818 6.03-3.37l.01-.01c1.827-2.071 7.255-8.27 9.86-12.09.11.039.074.009.94.32v.01h.01c.395.14 5.346 2.357 9.76 4.46a950.988 950.988 0 0110.35 5.01c2.1 1.04 3.094 1.717 3.35 1.72.017.45.035.939-.03 1.68-.18 2.056-.73 4.903-1.83 7.95-.54 1.492-3.348 4.568-6.89 6.81s-7.853 3.825-9.45 4.06c-4.8.707-10.5.966-16.76-1-4.34-1.362-9.752-3.126-16.76-6.11-14.212-6.061-26.291-16.375-34.92-25.46a152.146 152.146 0 01-10.23-11.97c-2.455-3.193-3.526-4.855-4.42-6.03l-.01-.01c-1.586-2.098-11.3-15.61-11.3-27.78 0-12.88 5.983-17.932 9.22-21.42 1.7-1.831 3.558-2.1 4.31-2.1z" fill="#fff" font-family="none" font-weight="none" font-size="none" text-anchor="none"/></svg>