<svg width="26" height="27" viewBox="0 0 26 27" fill="none" xmlns="http://www.w3.org/2000/svg">
<g id="arcticons:whatsapp" clip-path="url(#clip0_106_252)">
<path id="Vector" d="M13 2.32715C10.977 2.32932 8.98942 2.85794 7.23263 3.86102C5.47585 4.86411 4.01036 6.30713 2.98025 8.0482C1.95014 9.78928 1.39087 11.7685 1.35744 13.7912C1.32401 15.8139 1.81757 17.8105 2.78958 19.5846L1.35416 25.6188L7.38833 24.1834C8.94467 25.0372 10.6756 25.5238 12.4488 25.6063C14.222 25.6887 15.9906 25.3646 17.6195 24.6589C19.2483 23.9531 20.6942 22.8844 21.8468 21.5343C22.9993 20.1842 23.828 18.5885 24.2694 16.8691C24.7109 15.1498 24.7534 13.3522 24.3939 11.6139C24.0343 9.87557 23.2821 8.24244 22.1947 6.83931C21.1073 5.43619 19.7136 4.3002 18.12 3.51817C16.5264 2.73614 14.7751 2.32875 13 2.32715ZM7.17708 7.61923H10.3512C10.4949 7.61923 10.6327 7.6763 10.7343 7.77788C10.8358 7.87946 10.8929 8.01724 10.8929 8.1609C10.8751 8.88326 10.9965 9.6023 11.2504 10.2788C11.3598 10.5053 11.3838 10.7636 11.3181 11.0063C11.2525 11.2491 11.1015 11.46 10.8929 11.6005L9.7825 12.6838C10.2749 13.6453 10.9186 14.5213 11.6892 15.2784C12.4401 16.0615 13.3126 16.7181 14.2729 17.223L15.3562 16.1126C15.8979 15.5709 16.1471 15.5709 16.6779 15.7551C17.3544 16.009 18.0735 16.1303 18.7958 16.1126C18.9374 16.1192 19.0713 16.1783 19.1715 16.2785C19.2717 16.3787 19.3309 16.5127 19.3375 16.6542V19.8284C19.3309 19.9699 19.2717 20.1039 19.1715 20.2041C19.0713 20.3043 18.9374 20.3635 18.7958 20.3701C15.6095 20.2312 12.5892 18.9103 10.3242 16.6651C8.07537 14.4024 6.75384 11.3807 6.61916 8.1934C6.62045 8.0443 6.67915 7.90144 6.78306 7.79451C6.88696 7.68758 7.02808 7.6248 7.17708 7.61923Z" stroke="black" stroke-linecap="round" stroke-linejoin="round"/>
</g>
<defs>
<clipPath id="clip0_106_252">
<rect width="26" height="26" fill="white" transform="translate(0 0.972656)"/>
</clipPath>
</defs>
</svg>
